# xmcd CD database file
#
# Track frame offsets:
#	150
#	41118
#	130252
#	207742
#	250127
#
# Disc length: 3975 seconds
#
# Revision: 0
# Processed by: cddbd v1.5.2PL0 Copyright (c) Steve Scherf et al.
# Submitted via: CDex 1.70beta2
#
DISCID=4a0f8505
DTITLE=Kidd Jordan - Trio and Duo in New Orleans disc 2
DYEAR=2005
DGENRE=Jazz
TTITLE0=Liftoff
TTITLE1=Duo Flight
TTITLE2=E. Fashoe-Luke
TTITLE3=Tempest NOLA
TTITLE4=Nameless Sound Duo
EXTD=YEAR: 2005
EXTT0=
EXTT1=
EXTT2=
EXTT3=
EXTT4=
PLAYORDER=
